<?xml version="1.0" standalone="no"?>
<!DOCTYPE svg PUBLIC "-//W3C//DTD SVG 20010904//EN"
 "http://www.w3.org/TR/2001/REC-SVG-20010904/DTD/svg10.dtd">
<svg version="1.0" xmlns="http://www.w3.org/2000/svg"
 width="5315.000000pt" height="4977.000000pt" viewBox="0 0 5315.000000 4977.000000"
 preserveAspectRatio="xMidYMid meet">

<g transform="translate(0.000000,4977.000000) scale(0.100000,-0.100000)"
fill="#000000" stroke="none">
<path d="M19720 41380 c-19 -19 -20 -33 -20 -397 l0 -377 -262 261 c-145 143
-273 264 -284 267 -51 15 -103 -37 -88 -88 3 -11 124 -139 267 -283 l261 -263
-377 0 c-364 0 -378 -1 -397 -20 -29 -29 -26 -74 6 -99 26 -20 38 -21 398 -21
l371 0 -262 -262 c-143 -145 -264 -273 -268 -285 -6 -22 9 -62 29 -75 6 -4 24
-8 41 -8 26 0 66 36 297 267 l268 268 0 -382 0 -382 26 -20 c35 -27 59 -26 89
4 l25 24 0 373 0 372 263 -262 c245 -244 265 -262 298 -262 43 0 69 25 68 66
0 24 -42 72 -259 294 l-259 265 374 5 c405 5 396 4 410 60 4 18 0 34 -15 53
l-21 27 -382 0 -382 0 268 268 c237 237 267 271 267 299 0 41 -42 77 -80 68
-15 -4 -130 -111 -287 -268 l-263 -262 0 371 c0 360 -1 372 -21 398 -25 32
-70 35 -99 6z"/>
<path d="M29332 41374 c-27 -18 -29 -55 -4 -77 15 -14 41 -17 139 -17 103 0
122 3 136 18 22 25 21 48 -3 72 -18 18 -33 20 -133 20 -86 0 -118 -4 -135 -16z"/>
<path d="M29852 41374 c-26 -18 -29 -56 -6 -78 13 -13 45 -16 193 -16 160 0
180 2 194 18 23 26 21 58 -5 76 -18 13 -54 16 -188 16 -134 0 -170 -3 -188
-16z"/>
<path d="M30482 41374 c-26 -18 -29 -56 -6 -78 12 -13 40 -16 138 -16 106 0
125 2 139 18 22 25 21 48 -3 72 -18 18 -33 20 -133 20 -86 0 -118 -4 -135 -16z"/>
<path d="M28856 40834 c-19 -18 -20 -38 -6 -65 10 -17 22 -19 145 -19 123 0
135 2 145 19 14 27 13 47 -6 65 -12 13 -40 16 -139 16 -99 0 -127 -3 -139 -16z"/>
<path d="M29372 40838 c-7 -7 -12 -24 -12 -38 0 -47 11 -50 212 -50 175 0 188
1 198 19 14 27 13 47 -6 65 -13 13 -45 16 -198 16 -128 0 -186 -4 -194 -12z"/>
<path d="M30000 40831 c-13 -26 -13 -54 2 -69 8 -8 54 -12 139 -12 134 0 159
8 159 49 0 42 -29 51 -163 51 -115 0 -127 -2 -137 -19z"/>
<path d="M40137 39802 c-15 -17 -17 -59 -17 -398 l0 -379 -268 268 c-221 220
-273 267 -295 267 -34 0 -77 -40 -77 -72 0 -16 76 -98 267 -290 l268 -268
-140 -1 c-77 -1 -250 -5 -385 -8 l-244 -6 -15 -27 c-19 -34 -6 -77 29 -95 19
-10 117 -13 390 -13 l365 0 -268 -268 c-177 -178 -267 -275 -267 -289 0 -35
38 -73 73 -73 27 0 63 31 299 267 l268 268 0 -381 c0 -350 1 -382 18 -397 30
-27 73 -26 102 3 19 19 20 33 20 397 l0 378 268 -268 c285 -284 292 -290 342
-249 16 13 23 29 22 52 -1 30 -28 61 -263 296 l-263 263 378 3 378 3 20 25
c14 17 18 33 14 54 -13 63 -1 61 -408 63 -204 2 -372 4 -374 6 -2 2 114 120
256 262 234 233 260 263 260 292 0 40 -30 73 -67 73 -22 0 -77 -49 -295 -267
l-268 -268 0 378 c0 364 -1 378 -20 397 -26 26 -81 26 -103 2z"/>
<path d="M21600 37220 l0 -900 -1080 0 -1081 0 3 -4207 3 -4208 2278 -3 2277
-2 1 217 c1 120 1 1710 1 3533 -1 2203 1 3308 8 3295 5 -11 233 -771 505
-1690 642 -2163 660 -2222 1006 -3385 105 -355 196 -661 201 -680 14 -49 183
-618 290 -975 50 -165 92 -308 95 -317 3 -10 10 -18 17 -18 15 0 1202 347
1213 355 1 0 -15 59 -36 131 -21 71 -85 284 -141 474 -56 190 -135 455 -175
590 -75 251 -423 1419 -500 1680 -24 80 -161 541 -305 1025 -144 484 -417
1404 -607 2045 -190 641 -348 1168 -352 1172 -3 4 -278 -74 -610 -172 -332
-99 -606 -180 -608 -180 -1 0 -3 702 -3 1560 l0 1560 -1200 0 -1200 0 0 -900z"/>
<path d="M14122 34548 c-7 -7 -12 -24 -12 -38 0 -45 15 -50 150 -50 135 0 150
5 150 50 0 45 -15 50 -150 50 -85 0 -130 -4 -138 -12z"/>
<path d="M14642 34548 c-7 -7 -12 -24 -12 -38 0 -47 11 -50 206 -50 178 0 183
1 198 22 20 28 20 43 0 62 -13 13 -45 16 -198 16 -128 0 -186 -4 -194 -12z"/>
<path d="M15272 34548 c-7 -7 -12 -24 -12 -38 0 -45 15 -50 150 -50 135 0 150
5 150 50 0 45 -15 50 -150 50 -85 0 -130 -4 -138 -12z"/>
<path d="M14592 34018 c-7 -7 -12 -24 -12 -38 0 -45 15 -50 150 -50 135 0 150
5 150 50 0 45 -15 50 -150 50 -85 0 -130 -4 -138 -12z"/>
<path d="M15112 34018 c-7 -7 -12 -24 -12 -38 0 -47 11 -50 205 -50 99 0 185
4 191 8 20 14 25 45 9 68 -15 24 -17 24 -198 24 -129 0 -187 -4 -195 -12z"/>
<path d="M15742 34018 c-7 -7 -12 -24 -12 -38 0 -45 15 -50 150 -50 135 0 150
5 150 50 0 45 -15 50 -150 50 -85 0 -130 -4 -138 -12z"/>
<path d="M7205 32045 l-25 -24 0 -373 0 -373 -263 263 c-245 245 -264 262
-298 262 -43 0 -69 -25 -69 -66 0 -25 40 -69 267 -296 l268 -268 -375 0 c-425
0 -420 1 -420 -70 0 -71 -5 -70 420 -70 l375 0 -268 -268 c-234 -234 -267
-271 -267 -298 0 -39 27 -64 71 -64 31 0 56 22 296 262 l263 263 0 -373 0
-373 25 -24 c29 -30 68 -32 95 -5 19 19 20 33 20 395 0 206 3 375 8 375 4 0
124 -117 267 -260 246 -246 262 -260 297 -260 27 0 41 6 52 22 36 50 30 58
-251 340 l-268 268 378 0 c364 0 378 1 397 20 11 11 20 33 20 50 0 17 -9 39
-20 50 -19 19 -33 20 -397 20 l-378 0 268 268 c281 282 287 290 251 340 -11
16 -25 22 -52 22 -35 0 -51 -14 -297 -260 -143 -143 -263 -260 -267 -260 -5 0
-8 169 -8 375 0 362 -1 376 -20 395 -27 27 -66 25 -95 -5z"/>
<path d="M8436 26774 c-19 -18 -21 -65 -4 -82 17 -17 248 -16 270 1 26 19 27
57 2 81 -12 13 -40 16 -134 16 -94 0 -122 -3 -134 -16z"/>
<path d="M8950 26770 c-24 -24 -25 -38 -4 -68 15 -21 20 -22 199 -22 179 0
184 1 199 22 21 30 20 44 -4 68 -18 18 -33 20 -195 20 -162 0 -177 -2 -195
-20z"/>
<path d="M9580 26770 c-11 -11 -20 -27 -20 -35 0 -8 9 -24 20 -35 18 -18 33
-20 138 -20 121 0 143 6 155 42 3 9 -3 28 -14 42 -20 25 -24 26 -140 26 -106
0 -121 -2 -139 -20z"/>
<path d="M8895 26226 c-13 -20 -14 -29 -5 -46 16 -31 51 -40 150 -40 99 0 134
9 150 40 9 17 8 26 -5 46 -15 23 -19 24 -145 24 -126 0 -130 -1 -145 -24z"/>
<path d="M9417 26232 c-24 -26 -21 -47 9 -71 24 -19 40 -21 180 -21 84 0 164
4 178 10 38 14 51 46 31 76 -15 24 -16 24 -199 24 -164 0 -185 -2 -199 -18z"/>
<path d="M10044 26225 c-15 -23 -15 -27 -1 -49 19 -28 54 -36 161 -36 95 0
130 14 134 53 6 52 -8 57 -149 57 -126 0 -129 0 -145 -25z"/>
<path d="M46302 26227 c-22 -23 -22 -27 -22 -397 l0 -375 -268 268 c-147 147
-275 267 -284 267 -55 0 -94 -51 -76 -100 5 -14 124 -141 266 -282 l257 -258
-377 0 -377 0 -20 -26 c-12 -15 -21 -34 -21 -44 0 -10 9 -29 21 -44 l20 -26
377 0 377 0 -257 -257 c-142 -142 -261 -269 -266 -283 -18 -49 21 -100 76
-100 9 0 137 120 284 267 l268 268 0 -376 0 -376 23 -21 c27 -26 64 -28 95 -6
l22 15 0 382 0 382 258 -257 c141 -141 267 -261 279 -267 33 -17 51 -13 78 14
52 51 48 56 -242 347 l-268 268 378 0 c364 0 378 1 397 20 11 11 20 33 20 50
0 17 -9 39 -20 50 -19 19 -33 20 -397 20 l-378 0 268 268 c290 291 294 296
242 347 -27 27 -45 31 -78 14 -12 -6 -138 -126 -279 -267 l-258 -257 0 378 c0
364 -1 378 -20 397 -27 27 -71 26 -98 -3z"/>
<path d="M34090 24038 c0 -56 88 -1556 96 -1625 l5 -53 2414 0 2414 0 5 53 c8
67 96 1569 96 1625 l0 42 -2515 0 -2515 0 0 -42z"/>
<path d="M5226 22338 c-14 -19 -16 -74 -16 -398 l0 -375 -268 268 c-285 285
-292 290 -343 249 -15 -13 -22 -30 -22 -51 0 -29 27 -60 263 -296 l264 -264
-378 -3 -378 -3 -19 -24 c-24 -30 -24 -62 0 -92 l19 -24 378 -3 378 -3 -264
-264 c-236 -236 -263 -267 -263 -296 0 -21 7 -38 22 -51 51 -41 58 -36 343
249 l268 268 0 -375 c0 -425 -1 -420 70 -420 71 0 70 -5 70 420 l0 375 268
-268 c285 -285 292 -290 343 -249 15 13 22 30 22 51 0 29 -27 60 -263 296
l-264 264 378 3 378 3 19 24 c10 13 19 33 19 46 0 13 -9 33 -19 46 l-19 24
-378 3 -378 3 264 264 c236 236 263 267 263 296 0 21 -7 38 -22 51 -51 41 -58
36 -343 -249 l-268 -268 0 375 c0 425 1 420 -70 420 -29 0 -43 -6 -54 -22z"/>
<path d="M11758 21031 c-240 -65 -430 -264 -483 -505 -14 -64 -15 -639 -13
-5781 l3 -5710 27 -73 c73 -200 224 -352 421 -422 l52 -19 -335 -1 c-184 -1
-670 -6 -1080 -10 -830 -8 -807 -6 -966 -80 -98 -45 -159 -98 -190 -165 l-24
-50 0 -680 c0 -418 4 -694 10 -716 13 -46 69 -111 134 -155 l50 -34 -2240 -2
-2241 -3 -48 -30 c-129 -80 -129 -270 0 -350 l48 -30 21082 0 21082 0 48 30
c129 80 129 270 0 350 l-48 30 -1999 3 -1999 2 25 33 c33 43 80 147 103 228
17 59 18 115 18 714 0 731 3 703 -76 865 -56 115 -187 247 -299 302 -71 34
-157 62 -225 71 -16 2 349 5 813 6 l842 1 0 200 0 200 -965 0 -965 0 0 665 0
665 -1080 0 -1080 0 0 -665 0 -665 -2210 0 c-1215 0 -2210 2 -2210 5 0 3 11
27 24 53 13 26 35 81 48 122 l23 75 0 790 0 790 -29 85 c-15 47 -37 102 -47
123 l-19 37 4255 0 4255 0 0 198 0 199 -532 6 c-293 4 -3488 7 -7100 7 l-6568
0 0 4348 c0 3079 -3 4366 -11 4408 -44 240 -211 433 -456 527 l-58 22 -8850 2
c-8528 2 -8852 1 -8917 -16z m8996 -201 c66 -25 130 -85 159 -148 33 -71 30
-180 -5 -248 -93 -177 -330 -209 -464 -62 -58 63 -78 120 -72 210 3 40 12 88
22 105 69 135 221 195 360 143z m8216 -794 c198 -67 340 -202 408 -386 l27
-75 3 -4928 c2 -5464 8 -4997 -65 -5146 -76 -154 -242 -280 -420 -316 -63 -13
-1057 -15 -8305 -13 l-8233 3 -73 27 c-106 38 -175 83 -250 163 -72 76 -121
163 -147 260 -13 53 -15 578 -15 4988 0 4456 2 4935 16 4991 27 106 72 184
154 267 97 98 182 145 315 174 49 11 1509 13 8295 12 8003 -2 8237 -3 8290
-21z m7043 -11592 c-58 -127 -57 -107 -61 -784 -4 -690 -1 -735 52 -869 l33
-81 -1988 0 -1989 0 33 46 32 46 3 706 c2 488 0 719 -8 744 -25 86 -170 186
-330 227 -75 20 -73 20 2087 20 l2162 1 -26 -56z"/>
<path d="M34370 19336 c0 -24 80 -1381 100 -1686 13 -214 45 -322 133 -458 81
-125 181 -216 309 -284 l53 -28 -460 -2 -460 -3 -3 -1127 -2 -1128 2940 0
2940 0 0 1130 0 1130 -837 0 -838 0 53 28 c206 109 354 297 416 527 10 36 22
158 31 300 34 556 95 1579 95 1601 l0 24 -2235 0 -2235 0 0 -24z"/>
<path d="M39917 18862 c-21 -23 -22 -56 -1 -76 12 -13 40 -16 138 -16 106 0
125 2 139 18 22 24 21 55 -1 75 -15 14 -41 17 -139 17 -103 0 -122 -3 -136
-18z"/>
<path d="M40436 18864 c-23 -22 -20 -71 3 -84 12 -6 93 -10 195 -10 188 0 206
5 206 54 0 50 -22 56 -213 56 -146 0 -178 -3 -191 -16z"/>
<path d="M41067 18862 c-21 -23 -22 -56 -1 -76 12 -13 40 -16 138 -16 106 0
125 2 139 18 22 24 21 55 -1 75 -15 14 -41 17 -139 17 -103 0 -122 -3 -136
-18z"/>
<path d="M39452 18334 c-24 -17 -30 -62 -10 -82 17 -17 269 -17 286 0 20 20
14 65 -10 82 -17 12 -49 16 -133 16 -84 0 -116 -4 -133 -16z"/>
<path d="M39972 18334 c-24 -17 -30 -62 -10 -82 17 -17 379 -17 396 0 20 20
14 65 -10 82 -18 13 -54 16 -188 16 -134 0 -170 -3 -188 -16z"/>
<path d="M40602 18334 c-24 -17 -30 -62 -10 -82 8 -8 55 -12 145 -12 121 0
133 2 143 19 16 31 12 59 -12 75 -17 12 -49 16 -133 16 -84 0 -116 -4 -133
-16z"/>
<path d="M31403 16869 c-369 -43 -661 -257 -718 -526 -21 -98 -21 -1097 -1
-1194 53 -248 291 -446 618 -513 65 -13 159 -16 578 -16 l500 0 0 1130 0 1130
-452 -1 c-249 -1 -485 -5 -525 -10z"/>
<path d="M32940 15750 l0 -1130 275 0 275 0 0 1130 0 1130 -275 0 -275 0 0
-1130z"/>
<path d="M41100 15749 l0 -1130 418 3 417 4 90 27 c174 54 287 120 391 228 68
72 103 128 136 215 22 58 22 69 26 610 3 610 1 639 -60 764 -59 122 -216 257
-378 325 -163 69 -299 85 -717 85 l-323 0 0 -1131z"/>
<path d="M10725 5223 c-46 -24 -66 -45 -86 -88 -22 -48 -24 -113 -5 -158 17
-42 76 -93 123 -107 27 -8 2127 -10 7413 -8 l7375 3 35 20 c19 12 48 40 65 64
57 81 33 203 -52 261 l-37 25 -7400 2 c-6741 2 -7404 1 -7431 -14z"/>
<path d="M27755 5211 c-45 -11 -69 -26 -103 -65 -76 -87 -46 -235 59 -288 32
-17 290 -18 4968 -18 l4934 0 42 25 c50 29 70 57 86 119 25 100 -39 203 -140
225 -59 13 -9794 14 -9846 2z"/>
<path d="M21556 4265 c-152 -54 -168 -274 -24 -344 l44 -21 4855 0 c4709 0
4855 1 4889 19 19 10 48 35 64 55 26 31 31 48 34 104 3 60 0 72 -26 113 -18
27 -45 53 -68 65 -38 19 -122 19 -4884 21 -4096 2 -4851 0 -4884 -12z"/>
</g>
</svg>
